<svg width="118" height="27" viewBox="0 0 118 27" fill="none" xmlns="http://www.w3.org/2000/svg">
<g filter="url(#filter0_d_92_32)">
<mask id="path-1-outside-1_92_32" maskUnits="userSpaceOnUse" x="3" y="-1" width="113" height="21" fill="black">
<rect fill="white" x="3" y="-1" width="113" height="21"/>
<path d="M4.1527 18V0.545454H10.0504C11.4197 0.545454 12.5391 0.792613 13.4084 1.28693C14.2834 1.77557 14.9311 2.4375 15.3516 3.27273C15.772 4.10795 15.9822 5.03977 15.9822 6.06818C15.9822 7.09659 15.772 8.03125 15.3516 8.87216C14.9368 9.71307 14.2947 10.3835 13.4254 10.8835C12.5561 11.3778 11.4425 11.625 10.0845 11.625H5.85724V9.75H10.0163C10.9538 9.75 11.7067 9.58807 12.2749 9.2642C12.843 8.94034 13.255 8.50284 13.5107 7.9517C13.772 7.39489 13.9027 6.76705 13.9027 6.06818C13.9027 5.36932 13.772 4.74432 13.5107 4.19318C13.255 3.64205 12.8402 3.21023 12.2663 2.89773C11.6925 2.57955 10.9311 2.42045 9.98224 2.42045H6.26634V18H4.1527ZM22.9666 18.3068C22.1371 18.3068 21.3842 18.1506 20.7081 17.8381C20.032 17.5199 19.495 17.0625 19.0973 16.4659C18.6996 15.8636 18.5007 15.1364 18.5007 14.2841C18.5007 13.5341 18.6484 12.9261 18.9439 12.4602C19.2393 11.9886 19.6342 11.6193 20.1286 11.3523C20.6229 11.0852 21.1683 10.8864 21.7649 10.7557C22.3672 10.6193 22.9723 10.5114 23.5803 10.4318C24.3757 10.3295 25.0206 10.2528 25.5149 10.2017C26.0149 10.1449 26.3786 10.0511 26.6058 9.92045C26.8388 9.78977 26.9553 9.5625 26.9553 9.23864V9.17045C26.9553 8.32955 26.7251 7.67614 26.2649 7.21023C25.8104 6.74432 25.12 6.51136 24.1939 6.51136C23.2337 6.51136 22.4808 6.72159 21.9354 7.14205C21.3899 7.5625 21.0064 8.01136 20.7848 8.48864L18.8757 7.80682C19.2166 7.01136 19.6712 6.39205 20.2393 5.94886C20.8132 5.5 21.4382 5.1875 22.1143 5.01136C22.7962 4.82955 23.4666 4.73864 24.1257 4.73864C24.5462 4.73864 25.0291 4.78977 25.5746 4.89204C26.1257 4.98864 26.657 5.19034 27.1683 5.49716C27.6854 5.80398 28.1143 6.26705 28.4553 6.88636C28.7962 7.50568 28.9666 8.33523 28.9666 9.375V18H26.9553V16.2273H26.853C26.7166 16.5114 26.4893 16.8153 26.1712 17.1392C25.853 17.4631 25.4297 17.7386 24.9013 17.9659C24.3729 18.1932 23.728 18.3068 22.9666 18.3068ZM23.2734 16.5C24.0689 16.5 24.7393 16.3438 25.2848 16.0312C25.8359 15.7188 26.2507 15.3153 26.5291 14.821C26.8132 14.3267 26.9553 13.8068 26.9553 13.2614V11.4205C26.87 11.5227 26.6825 11.6165 26.3928 11.7017C26.1087 11.7812 25.7791 11.8523 25.4041 11.9148C25.0348 11.9716 24.674 12.0227 24.3217 12.0682C23.9751 12.108 23.6939 12.142 23.478 12.1705C22.9553 12.2386 22.4666 12.3494 22.0121 12.5028C21.5632 12.6506 21.1996 12.875 20.9212 13.1761C20.6484 13.4716 20.5121 13.875 20.5121 14.3864C20.5121 15.0852 20.7706 15.6136 21.2876 15.9716C21.8104 16.3239 22.4723 16.5 23.2734 16.5ZM32.6378 18V4.90909H34.581V6.88636H34.7173C34.956 6.23864 35.3878 5.71307 36.0128 5.30966C36.6378 4.90625 37.3423 4.70454 38.1264 4.70454C38.2741 4.70454 38.4588 4.70739 38.6804 4.71307C38.902 4.71875 39.0696 4.72727 39.1832 4.73864V6.78409C39.1151 6.76705 38.9588 6.74148 38.7145 6.70739C38.4759 6.66761 38.223 6.64773 37.956 6.64773C37.3196 6.64773 36.7514 6.78125 36.2514 7.0483C35.7571 7.30966 35.3651 7.6733 35.0753 8.1392C34.7912 8.59943 34.6491 9.125 34.6491 9.71591V18H32.6378ZM48.081 4.90909V6.61364H41.2969V4.90909H48.081ZM43.2741 1.77273H45.2855V14.25C45.2855 14.8182 45.3679 15.2443 45.5327 15.5284C45.7031 15.8068 45.919 15.9943 46.1804 16.0909C46.4474 16.1818 46.7287 16.2273 47.0241 16.2273C47.2457 16.2273 47.4276 16.2159 47.5696 16.1932C47.7116 16.1648 47.8253 16.142 47.9105 16.125L48.3196 17.9318C48.1832 17.983 47.9929 18.0341 47.7486 18.0852C47.5043 18.142 47.1946 18.1705 46.8196 18.1705C46.2514 18.1705 45.6946 18.0483 45.1491 17.804C44.6094 17.5597 44.1605 17.1875 43.8026 16.6875C43.4503 16.1875 43.2741 15.5568 43.2741 14.7955V1.77273ZM60.1449 7.84091L58.3381 8.35227C58.2244 8.05114 58.0568 7.75852 57.8352 7.47443C57.6193 7.18466 57.3239 6.94602 56.9489 6.75852C56.5739 6.57102 56.0938 6.47727 55.5085 6.47727C54.7074 6.47727 54.0398 6.66193 53.5057 7.03125C52.9773 7.39489 52.7131 7.85795 52.7131 8.42045C52.7131 8.92045 52.8949 9.31534 53.2585 9.60511C53.6222 9.89489 54.1903 10.1364 54.9631 10.3295L56.9062 10.8068C58.0767 11.0909 58.9489 11.5256 59.5227 12.1108C60.0966 12.6903 60.3835 13.4375 60.3835 14.3523C60.3835 15.1023 60.1676 15.7727 59.7358 16.3636C59.3097 16.9545 58.7131 17.4205 57.946 17.7614C57.179 18.1023 56.2869 18.2727 55.2699 18.2727C53.9347 18.2727 52.8295 17.983 51.9545 17.4034C51.0795 16.8239 50.5256 15.9773 50.2926 14.8636L52.2017 14.3864C52.3835 15.0909 52.7273 15.6193 53.233 15.9716C53.7443 16.3239 54.4119 16.5 55.2358 16.5C56.1733 16.5 56.9176 16.3011 57.4688 15.9034C58.0256 15.5 58.304 15.017 58.304 14.4545C58.304 14 58.1449 13.6193 57.8267 13.3125C57.5085 13 57.0199 12.767 56.3608 12.6136L54.179 12.1023C52.9801 11.8182 52.0994 11.3778 51.5369 10.7812C50.9801 10.179 50.7017 9.42614 50.7017 8.52273C50.7017 7.78409 50.9091 7.13068 51.3239 6.5625C51.7443 5.99432 52.3153 5.5483 53.0369 5.22443C53.7642 4.90057 54.5881 4.73864 55.5085 4.73864C56.804 4.73864 57.821 5.02273 58.5597 5.59091C59.304 6.15909 59.8324 6.90909 60.1449 7.84091Z"/>
<path d="M70.9112 9.57955V11.4545H63.2749V9.57955H70.9112ZM74.723 18V0.545454H80.8253C82.0412 0.545454 83.044 0.755682 83.8338 1.17614C84.6236 1.59091 85.2116 2.15057 85.598 2.85511C85.9844 3.55398 86.1776 4.32954 86.1776 5.18182C86.1776 5.93182 86.044 6.55114 85.777 7.03977C85.5156 7.52841 85.169 7.91477 84.7372 8.19886C84.3111 8.48295 83.848 8.69318 83.348 8.82955V9C83.8821 9.03409 84.419 9.22159 84.9588 9.5625C85.4986 9.90341 85.9503 10.392 86.3139 11.0284C86.6776 11.6648 86.8594 12.4432 86.8594 13.3636C86.8594 14.2386 86.6605 15.0256 86.2628 15.7244C85.8651 16.4233 85.2372 16.9773 84.3793 17.3864C83.5213 17.7955 82.4048 18 81.0298 18H74.723ZM76.8366 16.125H81.0298C82.4105 16.125 83.3906 15.858 83.9702 15.3239C84.5554 14.7841 84.848 14.1307 84.848 13.3636C84.848 12.7727 84.6974 12.2273 84.3963 11.7273C84.0952 11.2216 83.6662 10.8182 83.1094 10.517C82.5526 10.2102 81.8935 10.0568 81.1321 10.0568H76.8366V16.125ZM76.8366 8.21591H80.7571C81.3935 8.21591 81.9673 8.09091 82.4787 7.84091C82.9957 7.59091 83.4048 7.23864 83.706 6.78409C84.0128 6.32955 84.1662 5.79545 84.1662 5.18182C84.1662 4.41477 83.8991 3.7642 83.3651 3.23011C82.831 2.69034 81.9844 2.42045 80.8253 2.42045H76.8366V8.21591ZM95.3778 18.2727C94.196 18.2727 93.1591 17.9915 92.267 17.429C91.3807 16.8665 90.6875 16.0795 90.1875 15.0682C89.6932 14.0568 89.446 12.875 89.446 11.5227C89.446 10.1591 89.6932 8.96875 90.1875 7.9517C90.6875 6.93466 91.3807 6.14489 92.267 5.58239C93.1591 5.01989 94.196 4.73864 95.3778 4.73864C96.5597 4.73864 97.5938 5.01989 98.4801 5.58239C99.3722 6.14489 100.065 6.93466 100.56 7.9517C101.06 8.96875 101.31 10.1591 101.31 11.5227C101.31 12.875 101.06 14.0568 100.56 15.0682C100.065 16.0795 99.3722 16.8665 98.4801 17.429C97.5938 17.9915 96.5597 18.2727 95.3778 18.2727ZM95.3778 16.4659C96.2756 16.4659 97.0142 16.2358 97.5938 15.7756C98.1733 15.3153 98.6023 14.7102 98.8807 13.9602C99.1591 13.2102 99.2983 12.3977 99.2983 11.5227C99.2983 10.6477 99.1591 9.83239 98.8807 9.0767C98.6023 8.32102 98.1733 7.71023 97.5938 7.24432C97.0142 6.77841 96.2756 6.54545 95.3778 6.54545C94.4801 6.54545 93.7415 6.77841 93.1619 7.24432C92.5824 7.71023 92.1534 8.32102 91.875 9.0767C91.5966 9.83239 91.4574 10.6477 91.4574 11.5227C91.4574 12.3977 91.5966 13.2102 91.875 13.9602C92.1534 14.7102 92.5824 15.3153 93.1619 15.7756C93.7415 16.2358 94.4801 16.4659 95.3778 16.4659ZM105.341 4.90909L108.477 10.2614L111.614 4.90909H113.932L109.705 11.4545L113.932 18H111.614L108.477 12.9205L105.341 18H103.023L107.182 11.4545L103.023 4.90909H105.341Z"/>
</mask>
<path d="M4.1527 18V0.545454H10.0504C11.4197 0.545454 12.5391 0.792613 13.4084 1.28693C14.2834 1.77557 14.9311 2.4375 15.3516 3.27273C15.772 4.10795 15.9822 5.03977 15.9822 6.06818C15.9822 7.09659 15.772 8.03125 15.3516 8.87216C14.9368 9.71307 14.2947 10.3835 13.4254 10.8835C12.5561 11.3778 11.4425 11.625 10.0845 11.625H5.85724V9.75H10.0163C10.9538 9.75 11.7067 9.58807 12.2749 9.2642C12.843 8.94034 13.255 8.50284 13.5107 7.9517C13.772 7.39489 13.9027 6.76705 13.9027 6.06818C13.9027 5.36932 13.772 4.74432 13.5107 4.19318C13.255 3.64205 12.8402 3.21023 12.2663 2.89773C11.6925 2.57955 10.9311 2.42045 9.98224 2.42045H6.26634V18H4.1527ZM22.9666 18.3068C22.1371 18.3068 21.3842 18.1506 20.7081 17.8381C20.032 17.5199 19.495 17.0625 19.0973 16.4659C18.6996 15.8636 18.5007 15.1364 18.5007 14.2841C18.5007 13.5341 18.6484 12.9261 18.9439 12.4602C19.2393 11.9886 19.6342 11.6193 20.1286 11.3523C20.6229 11.0852 21.1683 10.8864 21.7649 10.7557C22.3672 10.6193 22.9723 10.5114 23.5803 10.4318C24.3757 10.3295 25.0206 10.2528 25.5149 10.2017C26.0149 10.1449 26.3786 10.0511 26.6058 9.92045C26.8388 9.78977 26.9553 9.5625 26.9553 9.23864V9.17045C26.9553 8.32955 26.7251 7.67614 26.2649 7.21023C25.8104 6.74432 25.12 6.51136 24.1939 6.51136C23.2337 6.51136 22.4808 6.72159 21.9354 7.14205C21.3899 7.5625 21.0064 8.01136 20.7848 8.48864L18.8757 7.80682C19.2166 7.01136 19.6712 6.39205 20.2393 5.94886C20.8132 5.5 21.4382 5.1875 22.1143 5.01136C22.7962 4.82955 23.4666 4.73864 24.1257 4.73864C24.5462 4.73864 25.0291 4.78977 25.5746 4.89204C26.1257 4.98864 26.657 5.19034 27.1683 5.49716C27.6854 5.80398 28.1143 6.26705 28.4553 6.88636C28.7962 7.50568 28.9666 8.33523 28.9666 9.375V18H26.9553V16.2273H26.853C26.7166 16.5114 26.4893 16.8153 26.1712 17.1392C25.853 17.4631 25.4297 17.7386 24.9013 17.9659C24.3729 18.1932 23.728 18.3068 22.9666 18.3068ZM23.2734 16.5C24.0689 16.5 24.7393 16.3438 25.2848 16.0312C25.8359 15.7188 26.2507 15.3153 26.5291 14.821C26.8132 14.3267 26.9553 13.8068 26.9553 13.2614V11.4205C26.87 11.5227 26.6825 11.6165 26.3928 11.7017C26.1087 11.7812 25.7791 11.8523 25.4041 11.9148C25.0348 11.9716 24.674 12.0227 24.3217 12.0682C23.9751 12.108 23.6939 12.142 23.478 12.1705C22.9553 12.2386 22.4666 12.3494 22.0121 12.5028C21.5632 12.6506 21.1996 12.875 20.9212 13.1761C20.6484 13.4716 20.5121 13.875 20.5121 14.3864C20.5121 15.0852 20.7706 15.6136 21.2876 15.9716C21.8104 16.3239 22.4723 16.5 23.2734 16.5ZM32.6378 18V4.90909H34.581V6.88636H34.7173C34.956 6.23864 35.3878 5.71307 36.0128 5.30966C36.6378 4.90625 37.3423 4.70454 38.1264 4.70454C38.2741 4.70454 38.4588 4.70739 38.6804 4.71307C38.902 4.71875 39.0696 4.72727 39.1832 4.73864V6.78409C39.1151 6.76705 38.9588 6.74148 38.7145 6.70739C38.4759 6.66761 38.223 6.64773 37.956 6.64773C37.3196 6.64773 36.7514 6.78125 36.2514 7.0483C35.7571 7.30966 35.3651 7.6733 35.0753 8.1392C34.7912 8.59943 34.6491 9.125 34.6491 9.71591V18H32.6378ZM48.081 4.90909V6.61364H41.2969V4.90909H48.081ZM43.2741 1.77273H45.2855V14.25C45.2855 14.8182 45.3679 15.2443 45.5327 15.5284C45.7031 15.8068 45.919 15.9943 46.1804 16.0909C46.4474 16.1818 46.7287 16.2273 47.0241 16.2273C47.2457 16.2273 47.4276 16.2159 47.5696 16.1932C47.7116 16.1648 47.8253 16.142 47.9105 16.125L48.3196 17.9318C48.1832 17.983 47.9929 18.0341 47.7486 18.0852C47.5043 18.142 47.1946 18.1705 46.8196 18.1705C46.2514 18.1705 45.6946 18.0483 45.1491 17.804C44.6094 17.5597 44.1605 17.1875 43.8026 16.6875C43.4503 16.1875 43.2741 15.5568 43.2741 14.7955V1.77273ZM60.1449 7.84091L58.3381 8.35227C58.2244 8.05114 58.0568 7.75852 57.8352 7.47443C57.6193 7.18466 57.3239 6.94602 56.9489 6.75852C56.5739 6.57102 56.0938 6.47727 55.5085 6.47727C54.7074 6.47727 54.0398 6.66193 53.5057 7.03125C52.9773 7.39489 52.7131 7.85795 52.7131 8.42045C52.7131 8.92045 52.8949 9.31534 53.2585 9.60511C53.6222 9.89489 54.1903 10.1364 54.9631 10.3295L56.9062 10.8068C58.0767 11.0909 58.9489 11.5256 59.5227 12.1108C60.0966 12.6903 60.3835 13.4375 60.3835 14.3523C60.3835 15.1023 60.1676 15.7727 59.7358 16.3636C59.3097 16.9545 58.7131 17.4205 57.946 17.7614C57.179 18.1023 56.2869 18.2727 55.2699 18.2727C53.9347 18.2727 52.8295 17.983 51.9545 17.4034C51.0795 16.8239 50.5256 15.9773 50.2926 14.8636L52.2017 14.3864C52.3835 15.0909 52.7273 15.6193 53.233 15.9716C53.7443 16.3239 54.4119 16.5 55.2358 16.5C56.1733 16.5 56.9176 16.3011 57.4688 15.9034C58.0256 15.5 58.304 15.017 58.304 14.4545C58.304 14 58.1449 13.6193 57.8267 13.3125C57.5085 13 57.0199 12.767 56.3608 12.6136L54.179 12.1023C52.9801 11.8182 52.0994 11.3778 51.5369 10.7812C50.9801 10.179 50.7017 9.42614 50.7017 8.52273C50.7017 7.78409 50.9091 7.13068 51.3239 6.5625C51.7443 5.99432 52.3153 5.5483 53.0369 5.22443C53.7642 4.90057 54.5881 4.73864 55.5085 4.73864C56.804 4.73864 57.821 5.02273 58.5597 5.59091C59.304 6.15909 59.8324 6.90909 60.1449 7.84091Z" fill="white" shape-rendering="crispEdges"/>
<path d="M70.9112 9.57955V11.4545H63.2749V9.57955H70.9112ZM74.723 18V0.545454H80.8253C82.0412 0.545454 83.044 0.755682 83.8338 1.17614C84.6236 1.59091 85.2116 2.15057 85.598 2.85511C85.9844 3.55398 86.1776 4.32954 86.1776 5.18182C86.1776 5.93182 86.044 6.55114 85.777 7.03977C85.5156 7.52841 85.169 7.91477 84.7372 8.19886C84.3111 8.48295 83.848 8.69318 83.348 8.82955V9C83.8821 9.03409 84.419 9.22159 84.9588 9.5625C85.4986 9.90341 85.9503 10.392 86.3139 11.0284C86.6776 11.6648 86.8594 12.4432 86.8594 13.3636C86.8594 14.2386 86.6605 15.0256 86.2628 15.7244C85.8651 16.4233 85.2372 16.9773 84.3793 17.3864C83.5213 17.7955 82.4048 18 81.0298 18H74.723ZM76.8366 16.125H81.0298C82.4105 16.125 83.3906 15.858 83.9702 15.3239C84.5554 14.7841 84.848 14.1307 84.848 13.3636C84.848 12.7727 84.6974 12.2273 84.3963 11.7273C84.0952 11.2216 83.6662 10.8182 83.1094 10.517C82.5526 10.2102 81.8935 10.0568 81.1321 10.0568H76.8366V16.125ZM76.8366 8.21591H80.7571C81.3935 8.21591 81.9673 8.09091 82.4787 7.84091C82.9957 7.59091 83.4048 7.23864 83.706 6.78409C84.0128 6.32955 84.1662 5.79545 84.1662 5.18182C84.1662 4.41477 83.8991 3.7642 83.3651 3.23011C82.831 2.69034 81.9844 2.42045 80.8253 2.42045H76.8366V8.21591ZM95.3778 18.2727C94.196 18.2727 93.1591 17.9915 92.267 17.429C91.3807 16.8665 90.6875 16.0795 90.1875 15.0682C89.6932 14.0568 89.446 12.875 89.446 11.5227C89.446 10.1591 89.6932 8.96875 90.1875 7.9517C90.6875 6.93466 91.3807 6.14489 92.267 5.58239C93.1591 5.01989 94.196 4.73864 95.3778 4.73864C96.5597 4.73864 97.5938 5.01989 98.4801 5.58239C99.3722 6.14489 100.065 6.93466 100.56 7.9517C101.06 8.96875 101.31 10.1591 101.31 11.5227C101.31 12.875 101.06 14.0568 100.56 15.0682C100.065 16.0795 99.3722 16.8665 98.4801 17.429C97.5938 17.9915 96.5597 18.2727 95.3778 18.2727ZM95.3778 16.4659C96.2756 16.4659 97.0142 16.2358 97.5938 15.7756C98.1733 15.3153 98.6023 14.7102 98.8807 13.9602C99.1591 13.2102 99.2983 12.3977 99.2983 11.5227C99.2983 10.6477 99.1591 9.83239 98.8807 9.0767C98.6023 8.32102 98.1733 7.71023 97.5938 7.24432C97.0142 6.77841 96.2756 6.54545 95.3778 6.54545C94.4801 6.54545 93.7415 6.77841 93.1619 7.24432C92.5824 7.71023 92.1534 8.32102 91.875 9.0767C91.5966 9.83239 91.4574 10.6477 91.4574 11.5227C91.4574 12.3977 91.5966 13.2102 91.875 13.9602C92.1534 14.7102 92.5824 15.3153 93.1619 15.7756C93.7415 16.2358 94.4801 16.4659 95.3778 16.4659ZM105.341 4.90909L108.477 10.2614L111.614 4.90909H113.932L109.705 11.4545L113.932 18H111.614L108.477 12.9205L105.341 18H103.023L107.182 11.4545L103.023 4.90909H105.341Z" fill="black" shape-rendering="crispEdges"/>
<path d="M4.1527 18H3.1527V19H4.1527V18ZM4.1527 0.545454V-0.454546H3.1527V0.545454H4.1527ZM13.4084 1.28693L12.9141 2.15625L12.9208 2.16002L13.4084 1.28693ZM15.3516 3.27273L14.4584 3.72237L14.4584 3.72237L15.3516 3.27273ZM15.3516 8.87216L14.4571 8.42494L14.4547 8.4298L15.3516 8.87216ZM13.4254 10.8835L13.9197 11.7528L13.924 11.7504L13.4254 10.8835ZM5.85724 11.625H4.85724V12.625H5.85724V11.625ZM5.85724 9.75V8.75H4.85724V9.75H5.85724ZM12.2749 9.2642L11.7797 8.39543L11.7797 8.39543L12.2749 9.2642ZM13.5107 7.9517L12.6054 7.52679L12.6035 7.53087L13.5107 7.9517ZM13.5107 4.19318L12.6035 4.61403L12.6071 4.62167L13.5107 4.19318ZM12.2663 2.89773L11.7814 3.77232L11.7881 3.77595L12.2663 2.89773ZM6.26634 2.42045V1.42045H5.26634V2.42045H6.26634ZM6.26634 18V19H7.26634V18H6.26634ZM5.1527 18V0.545454H3.1527V18H5.1527ZM4.1527 1.54545H10.0504V-0.454546H4.1527V1.54545ZM10.0504 1.54545C11.3077 1.54545 12.2409 1.77346 12.9141 2.15622L13.9027 0.417641C12.8372 -0.188231 11.5318 -0.454546 10.0504 -0.454546V1.54545ZM12.9208 2.16002C13.6345 2.55856 14.1343 3.07866 14.4584 3.72237L16.2448 2.82308C15.7279 1.79634 14.9323 0.992577 13.8959 0.413846L12.9208 2.16002ZM14.4584 3.72237C14.8018 4.40462 14.9822 5.1801 14.9822 6.06818H16.9822C16.9822 4.89945 16.7422 3.81129 16.2448 2.82308L14.4584 3.72237ZM14.9822 6.06818C14.9822 6.95617 14.8018 7.73557 14.4571 8.42494L16.246 9.31937C16.7422 8.32693 16.9822 7.23701 16.9822 6.06818H14.9822ZM14.4547 8.4298C14.1339 9.08029 13.6368 9.60833 12.9268 10.0167L13.924 11.7504C14.9527 11.1587 15.7397 10.3458 16.2484 9.31452L14.4547 8.4298ZM12.9311 10.0142C12.2569 10.3976 11.3287 10.625 10.0845 10.625V12.625C11.5563 12.625 12.8553 12.3581 13.9197 11.7528L12.9311 10.0142ZM10.0845 10.625H5.85724V12.625H10.0845V10.625ZM6.85724 11.625V9.75H4.85724V11.625H6.85724ZM5.85724 10.75H10.0163V8.75H5.85724V10.75ZM10.0163 10.75C11.0567 10.75 11.9995 10.5722 12.7701 10.133L11.7797 8.39543C11.4138 8.60395 10.851 8.75 10.0163 8.75V10.75ZM12.7701 10.133C13.5042 9.71453 14.0679 9.12682 14.4178 8.37254L12.6035 7.53087C12.4421 7.87887 12.1819 8.16615 11.7797 8.39543L12.7701 10.133ZM14.4159 8.37661C14.7477 7.66982 14.9027 6.89388 14.9027 6.06818H12.9027C12.9027 6.64021 12.7964 7.11995 12.6054 7.5268L14.4159 8.37661ZM14.9027 6.06818C14.9027 5.24271 14.7477 4.46798 14.4142 3.76469L12.6071 4.62167C12.7963 5.02065 12.9027 5.49593 12.9027 6.06818H14.9027ZM14.4178 3.77234C14.0649 3.01169 13.4917 2.42633 12.7446 2.0195L11.7881 3.77595C12.1887 3.99413 12.445 4.2724 12.6035 4.61402L14.4178 3.77234ZM12.7512 2.02316C11.9774 1.59411 11.03 1.42045 9.98224 1.42045V3.42045C10.8323 3.42045 11.4075 3.56498 11.7814 3.77229L12.7512 2.02316ZM9.98224 1.42045H6.26634V3.42045H9.98224V1.42045ZM5.26634 2.42045V18H7.26634V2.42045H5.26634ZM6.26634 17H4.1527V19H6.26634V17ZM20.7081 17.8381L20.2823 18.7429L20.2886 18.7458L20.7081 17.8381ZM19.0973 16.4659L18.2628 17.017L18.2653 17.0206L19.0973 16.4659ZM18.9439 12.4602L19.7884 12.9958L19.7913 12.9911L18.9439 12.4602ZM21.7649 10.7557L21.9789 11.7325L21.9857 11.731L21.7649 10.7557ZM23.5803 10.4318L23.4527 9.43998L23.4505 9.44027L23.5803 10.4318ZM25.5149 10.2017L25.6178 11.1964L25.6278 11.1953L25.5149 10.2017ZM26.6058 9.92045L26.1165 9.04826L26.1074 9.05355L26.6058 9.92045ZM26.2649 7.21023L25.5491 7.90856L25.5535 7.91298L26.2649 7.21023ZM21.9354 7.14205L22.5459 7.93406L22.5459 7.93406L21.9354 7.14205ZM20.7848 8.48864L20.4485 9.43038L21.3076 9.73722L21.6918 8.90975L20.7848 8.48864ZM18.8757 7.80682L17.9566 7.4129L17.5375 8.39074L18.5394 8.74856L18.8757 7.80682ZM20.2393 5.94886L20.8544 6.73737L20.8554 6.73653L20.2393 5.94886ZM22.1143 5.01136L22.3664 5.97908L22.372 5.9776L22.1143 5.01136ZM25.5746 4.89204L25.3903 5.87499L25.4019 5.87703L25.5746 4.89204ZM27.1683 5.49716L26.6538 6.35466L26.658 6.35714L27.1683 5.49716ZM28.4553 6.88636L27.5792 7.36859L27.5792 7.36859L28.4553 6.88636ZM28.9666 18V19H29.9666V18H28.9666ZM26.9553 18H25.9553V19H26.9553V18ZM26.9553 16.2273H27.9553V15.2273H26.9553V16.2273ZM26.853 16.2273V15.2273H26.2238L25.9515 15.7945L26.853 16.2273ZM26.1712 17.1392L26.8845 17.84L26.8845 17.84L26.1712 17.1392ZM24.9013 17.9659L24.5062 17.0473L24.9013 17.9659ZM25.2848 16.0312L24.7916 15.1613L24.7877 15.1636L25.2848 16.0312ZM26.5291 14.821L25.6621 14.3227L25.6578 14.3303L26.5291 14.821ZM26.9553 11.4205H27.9553V8.65839L26.187 10.7803L26.9553 11.4205ZM26.3928 11.7017L26.6624 12.6647L26.6749 12.6611L26.3928 11.7017ZM25.4041 11.9148L25.5562 12.9032L25.5685 12.9012L25.4041 11.9148ZM24.3217 12.0682L24.4358 13.0618L24.4497 13.06L24.3217 12.0682ZM23.478 12.1705L23.6073 13.1621L23.6084 13.1619L23.478 12.1705ZM22.0121 12.5028L22.3247 13.4527L22.3319 13.4503L22.0121 12.5028ZM20.9212 13.1761L20.1869 12.4973L20.1864 12.4979L20.9212 13.1761ZM21.2876 15.9716L20.7184 16.7938L20.7288 16.8009L21.2876 15.9716ZM22.9666 17.3068C22.2654 17.3068 21.658 17.1755 21.1276 16.9303L20.2886 18.7458C21.1105 19.1257 22.0088 19.3068 22.9666 19.3068V17.3068ZM21.1339 16.9332C20.6153 16.6892 20.2217 16.3497 19.9294 15.9112L18.2653 17.0206C18.7684 17.7753 19.4487 18.3506 20.2823 18.7429L21.1339 16.9332ZM19.9318 15.9148C19.6603 15.5038 19.5007 14.9765 19.5007 14.2841H17.5007C17.5007 15.2962 17.7388 16.2235 18.2628 17.017L19.9318 15.9148ZM19.5007 14.2841C19.5007 13.6577 19.6249 13.2537 19.7884 12.9958L18.0994 11.9247C17.672 12.5986 17.5007 13.4105 17.5007 14.2841H19.5007ZM19.7913 12.9911C19.9941 12.6675 20.2601 12.4178 20.6039 12.2321L19.6532 10.4725C19.0083 10.8208 18.4846 11.3097 18.0965 11.9293L19.7913 12.9911ZM20.6039 12.2321C21.0092 12.0131 21.4656 11.8449 21.9789 11.7325L21.5509 9.77884C20.871 9.92778 20.2365 10.1573 19.6532 10.4725L20.6039 12.2321ZM21.9857 11.731C22.5581 11.6014 23.1329 11.4989 23.71 11.4234L23.4505 9.44027C22.8118 9.52385 22.1762 9.63724 21.5441 9.78037L21.9857 11.731ZM23.7078 11.4237C24.4993 11.3219 25.1351 11.2463 25.6178 11.1964L25.412 9.20701C24.9061 9.25935 24.2521 9.33721 23.4527 9.43998L23.7078 11.4237ZM25.6278 11.1953C26.1617 11.1346 26.6937 11.0234 27.1043 10.7874L26.1074 9.05355C26.0634 9.07883 25.8682 9.15513 25.402 9.2081L25.6278 11.1953ZM27.0951 10.7926C27.7155 10.4445 27.9553 9.83325 27.9553 9.23864H25.9553C25.9553 9.28339 25.9471 9.25617 25.978 9.1959C25.9935 9.16553 26.0154 9.13419 26.0431 9.1058C26.0706 9.07767 26.0971 9.05923 26.1166 9.04831L27.0951 10.7926ZM27.9553 9.23864V9.17045H25.9553V9.23864H27.9553ZM27.9553 9.17045C27.9553 8.14453 27.6699 7.2096 26.9763 6.50747L25.5535 7.91298C25.7804 8.14267 25.9553 8.51456 25.9553 9.17045H27.9553ZM26.9807 6.5119C26.2703 5.78374 25.2741 5.51136 24.1939 5.51136V7.51136C24.9659 7.51136 25.3504 7.7049 25.5491 7.90855L26.9807 6.5119ZM24.1939 5.51136C23.0982 5.51136 22.1026 5.75052 21.3249 6.35004L22.5459 7.93406C22.859 7.69266 23.3692 7.51136 24.1939 7.51136V5.51136ZM21.3249 6.35003C20.6901 6.83931 20.1846 7.40665 19.8778 8.06752L21.6918 8.90975C21.8282 8.61608 22.0897 8.28568 22.5459 7.93406L21.3249 6.35003ZM21.1211 7.54689L19.212 6.86508L18.5394 8.74856L20.4485 9.43038L21.1211 7.54689ZM19.7949 8.20074C20.0826 7.52929 20.4436 7.05781 20.8544 6.73737L19.6243 5.16036C18.8988 5.72628 18.3506 6.49344 17.9566 7.4129L19.7949 8.20074ZM20.8554 6.73653C21.3263 6.36827 21.8283 6.11925 22.3664 5.97907L21.8623 4.04366C21.0481 4.25575 20.3002 4.63173 19.6232 5.16119L20.8554 6.73653ZM22.372 5.9776C22.9757 5.81662 23.5595 5.73864 24.1257 5.73864V3.73864C23.3737 3.73864 22.6166 3.84247 21.8567 4.04513L22.372 5.9776ZM24.1257 5.73864C24.4684 5.73864 24.8876 5.78066 25.3903 5.87492L25.7589 3.90917C25.1707 3.79889 24.624 3.73864 24.1257 3.73864V5.73864ZM25.4019 5.87703C25.8245 5.95109 26.2407 6.10675 26.6538 6.35465L27.6828 4.63967C27.0733 4.27393 26.4269 4.02618 25.7472 3.90706L25.4019 5.87703ZM26.658 6.35714C26.9965 6.55802 27.3091 6.87783 27.5792 7.36859L29.3313 6.40414C28.9196 5.65626 28.3742 5.04993 27.6786 4.63717L26.658 6.35714ZM27.5792 7.36859C27.8094 7.78681 27.9666 8.43009 27.9666 9.375H29.9666C29.9666 8.24036 29.7829 7.22456 29.3313 6.40414L27.5792 7.36859ZM27.9666 9.375V18H29.9666V9.375H27.9666ZM28.9666 17H26.9553V19H28.9666V17ZM27.9553 18V16.2273H25.9553V18H27.9553ZM26.9553 15.2273H26.853V17.2273H26.9553V15.2273ZM25.9515 15.7945C25.8786 15.9463 25.7299 16.1614 25.4578 16.4384L26.8845 17.84C27.2488 17.4692 27.5546 17.0764 27.7545 16.66L25.9515 15.7945ZM25.4578 16.4384C25.2513 16.6486 24.946 16.8581 24.5062 17.0473L25.2964 18.8845C25.9134 18.6192 26.4546 18.2776 26.8845 17.84L25.4578 16.4384ZM24.5062 17.0473C24.1359 17.2065 23.6339 17.3068 22.9666 17.3068V19.3068C23.8221 19.3068 24.6098 19.1798 25.2964 18.8845L24.5062 17.0473ZM23.2734 17.5C24.1978 17.5 25.05 17.3183 25.7819 16.8989L24.7877 15.1636C24.4287 15.3692 23.94 15.5 23.2734 15.5V17.5ZM25.778 16.9011C26.4684 16.5097 27.0227 15.9824 27.4004 15.3118L25.6578 14.3303C25.4787 14.6482 25.2035 14.9278 24.7916 15.1614L25.778 16.9011ZM27.3961 15.3193C27.7633 14.6805 27.9553 13.9897 27.9553 13.2614H25.9553C25.9553 13.6239 25.8632 13.9729 25.6621 14.3227L27.3961 15.3193ZM27.9553 13.2614V11.4205H25.9553V13.2614H27.9553ZM26.187 10.7803C26.2317 10.7267 26.271 10.6961 26.2885 10.6835C26.3067 10.6705 26.3139 10.6678 26.3035 10.673C26.2937 10.6779 26.2734 10.6872 26.2398 10.6999C26.2065 10.7123 26.1639 10.7267 26.1106 10.7423L26.6749 12.6611C26.8541 12.6084 27.0337 12.544 27.1979 12.4619C27.3519 12.3849 27.5564 12.2611 27.7235 12.0606L26.187 10.7803ZM26.1231 10.7387C25.8819 10.8063 25.5888 10.8702 25.2397 10.9284L25.5685 12.9012C25.9695 12.8343 26.3355 12.7562 26.6624 12.6647L26.1231 10.7387ZM25.2521 10.9264C24.8903 10.982 24.5376 11.032 24.1938 11.0764L24.4497 13.06C24.8104 13.0134 25.1793 12.9611 25.5562 12.9031L25.2521 10.9264ZM24.2077 11.0747C23.8585 11.1148 23.5712 11.1496 23.3475 11.179L23.6084 13.1619C23.8166 13.1345 24.0918 13.1011 24.4357 13.0617L24.2077 11.0747ZM23.3486 11.1789C22.7674 11.2547 22.2145 11.3791 21.6923 11.5553L22.3319 13.4503C22.7188 13.3197 23.1431 13.2226 23.6073 13.1621L23.3486 11.1789ZM21.6995 11.553C21.1141 11.7456 20.5971 12.0536 20.1869 12.4973L21.6554 13.855C21.8021 13.6964 22.0123 13.5555 22.3247 13.4527L21.6995 11.553ZM20.1864 12.4979C19.7005 13.0242 19.5121 13.6945 19.5121 14.3864H21.5121C21.5121 14.0555 21.5964 13.9189 21.656 13.8544L20.1864 12.4979ZM19.5121 14.3864C19.5121 15.3707 19.8983 16.226 20.7184 16.7938L21.8569 15.1494C21.6429 15.0013 21.5121 14.7997 21.5121 14.3864H19.5121ZM20.7288 16.8009C21.4562 17.2911 22.327 17.5 23.2734 17.5V15.5C22.6176 15.5 22.1645 15.3566 21.8465 15.1423L20.7288 16.8009ZM32.6378 18H31.6378V19H32.6378V18ZM32.6378 4.90909V3.90909H31.6378V4.90909H32.6378ZM34.581 4.90909H35.581V3.90909H34.581V4.90909ZM34.581 6.88636H33.581V7.88636H34.581V6.88636ZM34.7173 6.88636V7.88636H35.4146L35.6557 7.23207L34.7173 6.88636ZM36.0128 5.30966L35.4705 4.46947L35.4705 4.46947L36.0128 5.30966ZM39.1832 4.73864H40.1832V3.83365L39.2827 3.7436L39.1832 4.73864ZM39.1832 6.78409L38.9407 7.75423L40.1832 8.06487V6.78409H39.1832ZM38.7145 6.70739L38.5501 7.69378L38.5632 7.69596L38.5763 7.69779L38.7145 6.70739ZM36.2514 7.0483L36.7188 7.93234L36.7225 7.93037L36.2514 7.0483ZM35.0753 8.1392L34.2261 7.61106L34.2243 7.61394L35.0753 8.1392ZM34.6491 18V19H35.6491V18H34.6491ZM33.6378 18V4.90909H31.6378V18H33.6378ZM32.6378 5.90909H34.581V3.90909H32.6378V5.90909ZM33.581 4.90909V6.88636H35.581V4.90909H33.581ZM34.581 7.88636H34.7173V5.88636H34.581V7.88636ZM35.6557 7.23207C35.8134 6.80389 36.0972 6.4454 36.5551 6.14984L35.4705 4.46947C34.6784 4.98074 34.0985 5.67339 33.779 6.54066L35.6557 7.23207ZM36.5551 6.14984C37.0095 5.85653 37.5238 5.70454 38.1264 5.70454V3.70454C37.1609 3.70454 36.2661 3.95597 35.4705 4.46947L36.5551 6.14984ZM38.1264 5.70454C38.2625 5.70454 38.438 5.70718 38.6548 5.71274L38.706 3.7134C38.4797 3.70759 38.2858 3.70454 38.1264 3.70454V5.70454ZM38.6548 5.71274C38.87 5.71826 39.0079 5.72609 39.0837 5.73367L39.2827 3.7436C39.1313 3.72846 38.934 3.71924 38.706 3.7134L38.6548 5.71274ZM38.1832 4.73864V6.78409H40.1832V4.73864H38.1832ZM39.4258 5.81395C39.2955 5.78138 39.0821 5.74899 38.8527 5.71698L38.5763 7.69779C38.6944 7.71428 38.7861 7.72798 38.8534 7.739C38.9294 7.75143 38.9501 7.75657 38.9407 7.75423L39.4258 5.81395ZM38.8789 5.72099C38.5807 5.67129 38.2725 5.64773 37.956 5.64773V7.64773C38.1735 7.64773 38.371 7.66394 38.5501 7.69378L38.8789 5.72099ZM37.956 5.64773C37.1757 5.64773 36.4423 5.81266 35.7803 6.16622L36.7225 7.93037C37.0605 7.74984 37.4635 7.64773 37.956 7.64773V5.64773ZM35.784 6.16426C35.1363 6.50671 34.6113 6.99184 34.2261 7.61107L35.9244 8.66734C36.1189 8.35475 36.3779 8.1126 36.7188 7.93233L35.784 6.16426ZM34.2243 7.61394C33.8339 8.24651 33.6491 8.95725 33.6491 9.71591H35.6491C35.6491 9.29275 35.7485 8.95235 35.9262 8.66447L34.2243 7.61394ZM33.6491 9.71591V18H35.6491V9.71591H33.6491ZM34.6491 17H32.6378V19H34.6491V17ZM48.081 4.90909H49.081V3.90909H48.081V4.90909ZM48.081 6.61364V7.61364H49.081V6.61364H48.081ZM41.2969 6.61364H40.2969V7.61364H41.2969V6.61364ZM41.2969 4.90909V3.90909H40.2969V4.90909H41.2969ZM43.2741 1.77273V0.772727H42.2741V1.77273H43.2741ZM45.2855 1.77273H46.2855V0.772727H45.2855V1.77273ZM45.5327 15.5284L44.6676 16.0301L44.6736 16.0404L44.6798 16.0506L45.5327 15.5284ZM46.1804 16.0909L45.8337 17.0289L45.8459 17.0334L45.8581 17.0376L46.1804 16.0909ZM47.5696 16.1932L47.7276 17.1806L47.7467 17.1776L47.7657 17.1738L47.5696 16.1932ZM47.9105 16.125L48.8858 15.9042L48.6705 14.9532L47.7144 15.1444L47.9105 16.125ZM48.3196 17.9318L48.6707 18.8681L49.4876 18.5618L49.2949 17.711L48.3196 17.9318ZM47.7486 18.0852L47.5437 17.1064L47.5329 17.1087L47.5221 17.1112L47.7486 18.0852ZM45.1491 17.804L44.7368 18.715L44.7404 18.7166L45.1491 17.804ZM43.8026 16.6875L42.9851 17.2635L42.9894 17.2696L43.8026 16.6875ZM47.081 4.90909V6.61364H49.081V4.90909H47.081ZM48.081 5.61364H41.2969V7.61364H48.081V5.61364ZM42.2969 6.61364V4.90909H40.2969V6.61364H42.2969ZM41.2969 5.90909H48.081V3.90909H41.2969V5.90909ZM43.2741 2.77273H45.2855V0.772727H43.2741V2.77273ZM44.2855 1.77273V14.25H46.2855V1.77273H44.2855ZM44.2855 14.25C44.2855 14.8821 44.3714 15.5194 44.6676 16.0301L46.3977 15.0267C46.3644 14.9693 46.2855 14.7543 46.2855 14.25H44.2855ZM44.6798 16.0506C44.9466 16.4862 45.3269 16.8416 45.8337 17.0289L46.527 15.1529C46.5111 15.147 46.4597 15.1274 46.3855 15.0063L44.6798 16.0506ZM45.8581 17.0376C46.2338 17.1654 46.6243 17.2273 47.0241 17.2273V15.2273C46.8331 15.2273 46.6611 15.1982 46.5027 15.1443L45.8581 17.0376ZM47.0241 17.2273C47.2736 17.2273 47.5133 17.2149 47.7276 17.1806L47.4116 15.2057C47.3418 15.2169 47.2178 15.2273 47.0241 15.2273V17.2273ZM47.7657 17.1738C47.9078 17.1454 48.0214 17.1226 48.1066 17.1056L47.7144 15.1444C47.6292 15.1615 47.5155 15.1842 47.3735 15.2126L47.7657 17.1738ZM46.9352 16.3458L47.3443 18.1526L49.2949 17.711L48.8858 15.9042L46.9352 16.3458ZM47.9685 16.9955C47.9016 17.0206 47.768 17.0595 47.5437 17.1064L47.9534 19.064C48.2178 19.0087 48.4649 18.9453 48.6707 18.8681L47.9685 16.9955ZM47.5221 17.1112C47.3788 17.1445 47.1519 17.1705 46.8196 17.1705V19.1705C47.2373 19.1705 47.6297 19.1396 47.9751 19.0592L47.5221 17.1112ZM46.8196 17.1705C46.3996 17.1705 45.9816 17.0811 45.5579 16.8913L44.7404 18.7166C45.4076 19.0155 46.1032 19.1705 46.8196 19.1705V17.1705ZM45.5615 16.893C45.1881 16.7239 44.8753 16.4681 44.6157 16.1054L42.9894 17.2696C43.4457 17.9069 44.0306 18.3954 44.7368 18.715L45.5615 16.893ZM44.62 16.1115C44.4128 15.8175 44.2741 15.4015 44.2741 14.7955H42.2741C42.2741 15.7121 42.4877 16.5575 42.9851 17.2635L44.62 16.1115ZM44.2741 14.7955V1.77273H42.2741V14.7955H44.2741ZM60.1449 7.84091L60.4172 8.80311L61.4265 8.51746L61.093 7.52295L60.1449 7.84091ZM58.3381 8.35227L57.4025 8.70533L57.7267 9.56458L58.6104 9.31448L58.3381 8.35227ZM57.8352 7.47443L57.0333 8.07191L57.0399 8.08076L57.0467 8.08946L57.8352 7.47443ZM56.9489 6.75852L57.3961 5.8641L57.3961 5.86409L56.9489 6.75852ZM53.5057 7.03125L54.0726 7.85504L54.0744 7.85376L53.5057 7.03125ZM53.2585 9.60511L52.6353 10.3872L52.6353 10.3872L53.2585 9.60511ZM54.9631 10.3295L54.7205 11.2997L54.7245 11.3007L54.9631 10.3295ZM56.9062 10.8068L56.6677 11.778L56.6704 11.7786L56.9062 10.8068ZM59.5227 12.1108L58.8087 12.8109L58.8121 12.8144L59.5227 12.1108ZM59.7358 16.3636L58.9284 15.7736L58.9247 15.7787L59.7358 16.3636ZM51.9545 17.4034L52.5067 16.5697L52.5067 16.5697L51.9545 17.4034ZM50.2926 14.8636L50.0501 13.8935L49.1168 14.1268L49.3138 15.0684L50.2926 14.8636ZM52.2017 14.3864L53.17 14.1365L52.922 13.1755L51.9592 13.4162L52.2017 14.3864ZM53.233 15.9716L52.6613 16.7921L52.6656 16.7951L53.233 15.9716ZM57.4688 15.9034L58.0539 16.7143L58.0554 16.7132L57.4688 15.9034ZM57.8267 13.3125L57.126 14.026L57.1326 14.0323L57.8267 13.3125ZM56.3608 12.6136L56.1326 13.5873L56.1341 13.5876L56.3608 12.6136ZM54.179 12.1023L53.9484 13.0753L53.9508 13.0759L54.179 12.1023ZM51.5369 10.7812L50.8026 11.4601L50.8093 11.4673L51.5369 10.7812ZM51.3239 6.5625L50.52 5.96764L50.5162 5.97289L51.3239 6.5625ZM53.0369 5.22443L52.6301 4.31091L52.6275 4.31211L53.0369 5.22443ZM58.5597 5.59091L57.9499 6.38354L57.9529 6.38578L58.5597 5.59091ZM59.8726 6.8787L58.0657 7.39007L58.6104 9.31448L60.4172 8.80311L59.8726 6.8787ZM59.2737 7.99922C59.1205 7.59335 58.9 7.21355 58.6237 6.8594L57.0467 8.08946C57.2137 8.30349 57.3284 8.50892 57.4025 8.70533L59.2737 7.99922ZM58.6371 6.87695C58.3139 6.44318 57.8885 6.11029 57.3961 5.8641L56.5017 7.65295C56.7593 7.78175 56.9247 7.92614 57.0333 8.07191L58.6371 6.87695ZM57.3961 5.86409C56.8384 5.58526 56.1912 5.47727 55.5085 5.47727V7.47727C55.9963 7.47727 56.3093 7.55678 56.5017 7.65295L57.3961 5.86409ZM55.5085 5.47727C54.5521 5.47727 53.6737 5.69927 52.9369 6.20874L54.0744 7.85376C54.4058 7.62459 54.8626 7.47727 55.5085 7.47727V5.47727ZM52.9388 6.20747C52.1834 6.72731 51.7131 7.47862 51.7131 8.42045H53.7131C53.7131 8.23729 53.7712 8.06247 54.0726 7.85503L52.9388 6.20747ZM51.7131 8.42045C51.7131 9.19856 52.0137 9.89183 52.6353 10.3872L53.8817 8.82305C53.7761 8.73885 53.7131 8.64235 53.7131 8.42045H51.7131ZM52.6353 10.3872C53.1638 10.8083 53.8943 11.0931 54.7205 11.2997L55.2056 9.3594C54.4864 9.1796 54.0806 8.9815 53.8817 8.82305L52.6353 10.3872ZM54.7245 11.3007L56.6677 11.778L57.1448 9.83568L55.2016 9.35841L54.7245 11.3007ZM56.6704 11.7786C57.7393 12.0381 58.4134 12.4078 58.8087 12.8109L60.2367 11.4107C59.4843 10.6433 58.4141 10.1438 57.1421 9.83503L56.6704 11.7786ZM58.8121 12.8144C59.1774 13.1833 59.3835 13.6661 59.3835 14.3523H61.3835C61.3835 13.2089 61.0158 12.1974 60.2333 11.4072L58.8121 12.8144ZM59.3835 14.3523C59.3835 14.8958 59.2318 15.3585 58.9284 15.7736L60.5432 16.9537C61.1034 16.187 61.3835 15.3088 61.3835 14.3523H59.3835ZM58.9247 15.7787C58.617 16.2055 58.1702 16.5674 57.5399 16.8476L58.3522 18.6752C59.256 18.2735 60.0024 17.7036 60.5469 16.9486L58.9247 15.7787ZM57.5399 16.8476C56.9248 17.1209 56.176 17.2727 55.2699 17.2727V19.2727C56.3979 19.2727 57.4332 19.0836 58.3522 18.6752L57.5399 16.8476ZM55.2699 17.2727C54.0779 17.2727 53.1787 17.0147 52.5067 16.5697L51.4023 18.2371C52.4804 18.9512 53.7915 19.2727 55.2699 19.2727V17.2727ZM52.5067 16.5697C51.8707 16.1484 51.4555 15.5387 51.2714 14.6589L49.3138 15.0684C49.5957 16.4158 50.2884 17.4993 51.4023 18.2371L52.5067 16.5697ZM50.5351 15.8338L52.4442 15.3565L51.9592 13.4162L50.0501 13.8935L50.5351 15.8338ZM51.2334 14.6362C51.4636 15.5283 51.9252 16.2793 52.6614 16.7921L53.8046 15.1511C53.5294 14.9594 53.3034 14.6535 53.17 14.1365L51.2334 14.6362ZM52.6656 16.7951C53.3905 17.2945 54.2745 17.5 55.2358 17.5V15.5C54.5493 15.5 54.0981 15.3533 53.8003 15.1481L52.6656 16.7951ZM55.2358 17.5C56.3055 17.5 57.2786 17.2738 58.0539 16.7143L56.8836 15.0925C56.5566 15.3285 56.0411 15.5 55.2358 15.5V17.5ZM58.0554 16.7132C58.8069 16.1688 59.304 15.4102 59.304 14.4545H57.304C57.304 14.6239 57.2442 14.8312 56.8821 15.0936L58.0554 16.7132ZM59.304 14.4545C59.304 13.7371 59.0406 13.0939 58.5208 12.5927L57.1326 14.0323C57.2491 14.1448 57.304 14.2629 57.304 14.4545H59.304ZM58.5274 12.5991C58.0271 12.1076 57.3398 11.8148 56.5875 11.6397L56.1341 13.5876C56.7 13.7193 56.99 13.8924 57.126 14.0259L58.5274 12.5991ZM56.589 11.64L54.4072 11.1287L53.9508 13.0759L56.1326 13.5873L56.589 11.64ZM54.4096 11.1292C53.3114 10.869 52.6414 10.4949 52.2645 10.0952L50.8093 11.4673C51.5575 12.2608 52.6489 12.7674 53.9484 13.0753L54.4096 11.1292ZM52.2712 10.1024C51.9031 9.70429 51.7017 9.20217 51.7017 8.52273H49.7017C49.7017 9.6501 50.0571 10.6537 50.8027 11.4601L52.2712 10.1024ZM51.7017 8.52273C51.7017 7.98475 51.8482 7.5402 52.1316 7.15211L50.5162 5.97289C49.9699 6.72116 49.7017 7.58343 49.7017 8.52273H51.7017ZM52.1277 7.15734C52.4344 6.74288 52.8623 6.3989 53.4464 6.13676L52.6275 4.31211C51.7683 4.69769 51.0542 5.24575 50.52 5.96766L52.1277 7.15734ZM53.4437 6.13795C54.0245 5.87933 54.7065 5.73864 55.5085 5.73864V3.73864C54.4697 3.73864 53.5039 3.9218 52.6301 4.31091L53.4437 6.13795ZM55.5085 5.73864C56.6679 5.73864 57.443 5.99354 57.9499 6.38353L59.1694 4.79828C58.1991 4.05192 56.9401 3.73864 55.5085 3.73864V5.73864ZM57.9529 6.38578C58.5302 6.82648 58.9445 7.40663 59.1968 8.15887L61.093 7.52295C60.7203 6.41155 60.0778 5.4917 59.1664 4.79603L57.9529 6.38578ZM70.9112 9.57955H71.9112V8.57955H70.9112V9.57955ZM70.9112 11.4545V12.4545H71.9112V11.4545H70.9112ZM63.2749 11.4545H62.2749V12.4545H63.2749V11.4545ZM63.2749 9.57955V8.57955H62.2749V9.57955H63.2749ZM69.9112 9.57955V11.4545H71.9112V9.57955H69.9112ZM70.9112 10.4545H63.2749V12.4545H70.9112V10.4545ZM64.2749 11.4545V9.57955H62.2749V11.4545H64.2749ZM63.2749 10.5795H70.9112V8.57955H63.2749V10.5795ZM74.723 18H73.723V19H74.723V18ZM74.723 0.545454V-0.454546H73.723V0.545454H74.723ZM83.8338 1.17614L83.3639 2.05885L83.3688 2.06147L83.8338 1.17614ZM85.598 2.85511L84.7212 3.33595L84.7228 3.33894L85.598 2.85511ZM85.777 7.03977L84.8994 6.56019L84.8952 6.56812L85.777 7.03977ZM84.7372 8.19886L84.1876 7.36343L84.1825 7.36681L84.7372 8.19886ZM83.348 8.82955L83.0849 7.86478L82.348 8.06575V8.82955H83.348ZM83.348 9H82.348V9.93821L83.2843 9.99797L83.348 9ZM84.9588 9.5625L84.4248 10.408L84.4248 10.408L84.9588 9.5625ZM86.2628 15.7244L87.1319 16.219L87.1319 16.219L86.2628 15.7244ZM84.3793 17.3864L83.9489 16.4837L83.9489 16.4837L84.3793 17.3864ZM76.8366 16.125H75.8366V17.125H76.8366V16.125ZM83.9702 15.3239L84.6479 16.0592L84.6482 16.0589L83.9702 15.3239ZM84.3963 11.7273L83.5371 12.2389L83.5397 12.2432L84.3963 11.7273ZM83.1094 10.517L82.6268 11.3929L82.6337 11.3967L83.1094 10.517ZM76.8366 10.0568V9.05682H75.8366V10.0568H76.8366ZM76.8366 8.21591H75.8366V9.21591H76.8366V8.21591ZM82.4787 7.84091L82.0434 6.94062L82.0395 6.94252L82.4787 7.84091ZM83.706 6.78409L82.8771 6.2246L82.8723 6.2318L83.706 6.78409ZM83.3651 3.23011L82.6542 3.93348L82.658 3.93722L83.3651 3.23011ZM76.8366 2.42045V1.42045H75.8366V2.42045H76.8366ZM75.723 18V0.545454H73.723V18H75.723ZM74.723 1.54545H80.8253V-0.454546H74.723V1.54545ZM80.8253 1.54545C81.9334 1.54545 82.7613 1.73805 83.3639 2.05884L84.3037 0.293432C83.3268 -0.226686 82.149 -0.454546 80.8253 -0.454546V1.54545ZM83.3688 2.06147C84.0045 2.39528 84.4396 2.8225 84.7212 3.33595L86.4748 2.37428C85.9837 1.47863 85.2427 0.786534 84.2988 0.290804L83.3688 2.06147ZM84.7228 3.33894C85.0218 3.87974 85.1776 4.48704 85.1776 5.18182H87.1776C87.1776 4.17205 86.9469 3.22821 86.4732 2.37128L84.7228 3.33894ZM85.1776 5.18182C85.1776 5.81997 85.0631 6.26082 84.8995 6.5602L86.6545 7.51934C87.025 6.84145 87.1776 6.04366 87.1776 5.18182H85.1776ZM84.8952 6.56812C84.7067 6.92061 84.4701 7.17758 84.1876 7.36345L85.2868 9.03428C85.868 8.65196 86.3246 8.13621 86.6588 7.51142L84.8952 6.56812ZM84.1825 7.36681C83.8469 7.59056 83.4825 7.75636 83.0849 7.86478L83.6111 9.79431C84.2136 9.63001 84.7753 9.37534 85.2919 9.03091L84.1825 7.36681ZM82.348 8.82955V9H84.348V8.82955H82.348ZM83.2843 9.99797C83.6219 10.0195 83.9993 10.1393 84.4248 10.408L85.4928 8.71701C84.8387 8.30392 84.1423 8.04866 83.4117 8.00203L83.2843 9.99797ZM84.4248 10.408C84.807 10.6494 85.1511 11.009 85.4457 11.5245L87.1822 10.5323C86.7495 9.77506 86.1901 9.15744 85.4928 8.71701L84.4248 10.408ZM85.4457 11.5245C85.7035 11.9758 85.8594 12.5733 85.8594 13.3636H87.8594C87.8594 12.313 87.6516 11.3537 87.1822 10.5323L85.4457 11.5245ZM85.8594 13.3636C85.8594 14.0809 85.6982 14.6948 85.3937 15.2298L87.1319 16.219C87.6229 15.3563 87.8594 14.3963 87.8594 13.3636H85.8594ZM85.3937 15.2298C85.1144 15.7206 84.6567 16.1462 83.9489 16.4837L84.8097 18.289C85.8177 17.8083 86.6157 17.126 87.1319 16.219L85.3937 15.2298ZM83.9489 16.4837C83.2716 16.8067 82.3175 17 81.0298 17V19C82.4922 19 83.771 18.7843 84.8097 18.289L83.9489 16.4837ZM81.0298 17H74.723V19H81.0298V17ZM76.8366 17.125H81.0298V15.125H76.8366V17.125ZM81.0298 17.125C82.4891 17.125 83.7872 16.8524 84.6479 16.0592L83.2925 14.5885C82.9941 14.8635 82.332 15.125 81.0298 15.125V17.125ZM84.6482 16.0589C85.4298 15.338 85.848 14.4217 85.848 13.3636H83.848C83.848 13.8397 83.681 14.2302 83.2922 14.5888L84.6482 16.0589ZM85.848 13.3636C85.848 12.5933 85.6491 11.8691 85.2529 11.2113L83.5397 12.2432C83.7458 12.5854 83.848 12.9522 83.848 13.3636H85.848ZM85.2555 11.2156C84.8551 10.5432 84.2881 10.0177 83.5851 9.63744L82.6337 11.3967C83.0442 11.6187 83.3353 11.8999 83.5371 12.2389L85.2555 11.2156ZM83.592 9.64121C82.8607 9.23827 82.029 9.05682 81.1321 9.05682V11.0568C81.758 11.0568 82.2444 11.1822 82.6268 11.3929L83.592 9.64121ZM81.1321 9.05682H76.8366V11.0568H81.1321V9.05682ZM75.8366 10.0568V16.125H77.8366V10.0568H75.8366ZM76.8366 9.21591H80.7571V7.21591H76.8366V9.21591ZM80.7571 9.21591C81.5276 9.21591 82.2544 9.06368 82.9179 8.73929L82.0395 6.94252C81.6803 7.11813 81.2594 7.21591 80.7571 7.21591V9.21591ZM82.914 8.74119C83.5837 8.41739 84.134 7.94868 84.5396 7.33638L82.8723 6.2318C82.6757 6.5286 82.4078 6.76442 82.0434 6.94062L82.914 8.74119ZM84.5348 7.34356C84.9662 6.70447 85.1662 5.97022 85.1662 5.18182H83.1662C83.1662 5.62068 83.0594 5.95462 82.8771 6.22462L84.5348 7.34356ZM85.1662 5.18182C85.1662 4.15418 84.797 3.24788 84.0722 2.52301L82.658 3.93722C83.0013 4.28053 83.1662 4.67537 83.1662 5.18182H85.1662ZM84.0759 2.52676C83.2751 1.71744 82.1133 1.42045 80.8253 1.42045V3.42045C81.8555 3.42045 82.3868 3.66324 82.6542 3.93347L84.0759 2.52676ZM80.8253 1.42045H76.8366V3.42045H80.8253V1.42045ZM75.8366 2.42045V8.21591H77.8366V2.42045H75.8366ZM92.267 17.429L91.7312 18.2733L91.7337 18.2748L92.267 17.429ZM90.1875 15.0682L89.2891 15.5073L89.2911 15.5114L90.1875 15.0682ZM90.1875 7.9517L89.2901 7.51051L89.2881 7.51457L90.1875 7.9517ZM92.267 5.58239L91.7337 4.73651L91.7312 4.73806L92.267 5.58239ZM98.4801 5.58239L97.9443 6.42672L97.9467 6.42826L98.4801 5.58239ZM100.56 7.9517L99.6603 8.38884L99.6622 8.39289L100.56 7.9517ZM100.56 15.0682L99.6632 14.625L99.6612 14.6291L100.56 15.0682ZM98.4801 17.429L97.9467 16.5831L97.9443 16.5846L98.4801 17.429ZM97.5938 15.7756L96.9719 14.9925L96.9719 14.9925L97.5938 15.7756ZM98.8807 13.9602L99.8182 14.3082L99.8182 14.3082L98.8807 13.9602ZM98.8807 9.0767L99.819 8.731L99.819 8.731L98.8807 9.0767ZM97.5938 7.24432L98.2203 6.46494L98.2203 6.46494L97.5938 7.24432ZM93.1619 7.24432L92.5354 6.46494L92.5354 6.46494L93.1619 7.24432ZM91.875 9.0767L90.9367 8.731L90.9367 8.731L91.875 9.0767ZM91.875 13.9602L90.9375 14.3082L90.9375 14.3082L91.875 13.9602ZM93.1619 15.7756L93.7838 14.9925L93.7838 14.9925L93.1619 15.7756ZM95.3778 17.2727C94.3613 17.2727 93.514 17.0331 92.8004 16.5831L91.7337 18.2748C92.8041 18.9499 94.0307 19.2727 95.3778 19.2727V17.2727ZM92.8029 16.5846C92.0828 16.1277 91.509 15.4849 91.0839 14.625L89.2911 15.5114C89.866 16.6742 90.6786 17.6053 91.7312 18.2733L92.8029 16.5846ZM91.0859 14.6291C90.6706 13.7792 90.446 12.7531 90.446 11.5227H88.446C88.446 12.9969 88.7158 14.3344 89.2891 15.5073L91.0859 14.6291ZM90.446 11.5227C90.446 10.2798 90.671 9.24448 91.0869 8.38884L89.2881 7.51457C88.7153 8.69302 88.446 10.0384 88.446 11.5227H90.446ZM91.0849 8.39289C91.5105 7.5273 92.0842 6.88282 92.8029 6.42672L91.7312 4.73806C90.6772 5.40696 89.8645 6.34202 89.2901 7.51052L91.0849 8.39289ZM92.8004 6.42826C93.514 5.97827 94.3613 5.73864 95.3778 5.73864V3.73864C94.0307 3.73864 92.8041 4.0615 91.7337 4.73651L92.8004 6.42826ZM95.3778 5.73864C96.3945 5.73864 97.2377 5.9783 97.9443 6.42672L99.0159 4.73806C97.9498 4.06147 96.7249 3.73864 95.3778 3.73864V5.73864ZM97.9467 6.42826C98.6696 6.88407 99.2413 7.52688 99.6603 8.38884L101.459 7.51457C100.889 6.34244 100.075 5.4057 99.0135 4.73651L97.9467 6.42826ZM99.6622 8.39289C100.082 9.24753 100.31 10.2814 100.31 11.5227H102.31C102.31 10.0368 102.037 8.68997 101.457 7.51052L99.6622 8.39289ZM100.31 11.5227C100.31 12.7515 100.083 13.7762 99.6632 14.625L101.456 15.5114C102.036 14.3375 102.31 12.9985 102.31 11.5227H100.31ZM99.6612 14.6291C99.2427 15.4853 98.671 16.1264 97.9467 16.5831L99.0135 18.2748C100.073 17.6066 100.888 16.6738 101.458 15.5073L99.6612 14.6291ZM97.9443 16.5846C97.2377 17.0331 96.3945 17.2727 95.3778 17.2727V19.2727C96.7249 19.2727 97.9498 18.9499 99.0159 18.2733L97.9443 16.5846ZM95.3778 17.4659C96.4517 17.4659 97.4239 17.1874 98.2156 16.5587L96.9719 14.9925C96.6045 15.2842 96.0994 15.4659 95.3778 15.4659V17.4659ZM98.2156 16.5587C98.9497 15.9758 99.4816 15.215 99.8182 14.3082L97.9432 13.6122C97.723 14.2055 97.3969 14.6549 96.9719 14.9925L98.2156 16.5587ZM99.8182 14.3082C100.142 13.4369 100.298 12.5054 100.298 11.5227H98.2983C98.2983 12.2901 98.1766 12.9836 97.9432 13.6122L99.8182 14.3082ZM100.298 11.5227C100.298 10.54 100.142 9.60658 99.819 8.731L97.9423 9.42241C98.1766 10.0582 98.2983 10.7555 98.2983 11.5227H100.298ZM99.819 8.731C99.4833 7.81979 98.9529 7.05385 98.2203 6.46494L96.9672 8.02369C97.3937 8.3666 97.7212 8.82226 97.9423 9.42241L99.819 8.731ZM98.2203 6.46494C97.4284 5.82835 96.4546 5.54545 95.3778 5.54545V7.54545C96.0966 7.54545 96.6 7.72847 96.9672 8.02369L98.2203 6.46494ZM95.3778 5.54545C94.3011 5.54545 93.3272 5.82835 92.5354 6.46494L93.7885 8.02369C94.1557 7.72847 94.6591 7.54545 95.3778 7.54545V5.54545ZM92.5354 6.46494C91.8028 7.05385 91.2724 7.81979 90.9367 8.731L92.8133 9.42241C93.0345 8.82226 93.3619 8.3666 93.7885 8.02369L92.5354 6.46494ZM90.9367 8.731C90.6141 9.60658 90.4574 10.54 90.4574 11.5227H92.4574C92.4574 10.7555 92.5791 10.0582 92.8133 9.42241L90.9367 8.731ZM90.4574 11.5227C90.4574 12.5054 90.6141 13.4369 90.9375 14.3082L92.8125 13.6122C92.5791 12.9836 92.4574 12.2901 92.4574 11.5227H90.4574ZM90.9375 14.3082C91.2741 15.215 91.806 15.9758 92.5401 16.5587L93.7838 14.9925C93.3588 14.6549 93.0327 14.2055 92.8125 13.6122L90.9375 14.3082ZM92.54 16.5587C93.3318 17.1874 94.3039 17.4659 95.3778 17.4659V15.4659C94.6563 15.4659 94.1512 15.2842 93.7838 14.9925L92.54 16.5587ZM105.341 4.90909L106.204 4.40351L105.914 3.90909H105.341V4.90909ZM108.477 10.2614L107.614 10.7669L108.477 12.2393L109.34 10.7669L108.477 10.2614ZM111.614 4.90909V3.90909H111.041L110.751 4.40351L111.614 4.90909ZM113.932 4.90909L114.772 5.45162L115.768 3.90909H113.932V4.90909ZM109.705 11.4545L108.865 10.912L108.514 11.4545L108.865 11.9971L109.705 11.4545ZM113.932 18V19H115.768L114.772 17.4575L113.932 18ZM111.614 18L110.763 18.5254L111.056 19H111.614V18ZM108.477 12.9205L109.328 12.3951L108.477 11.017L107.626 12.3951L108.477 12.9205ZM105.341 18V19H105.899L106.192 18.5254L105.341 18ZM103.023 18L102.179 17.4637L101.203 19H103.023V18ZM107.182 11.4545L108.026 11.9909L108.367 11.4545L108.026 10.9182L107.182 11.4545ZM103.023 4.90909V3.90909H101.203L102.179 5.4454L103.023 4.90909ZM104.478 5.41467L107.614 10.7669L109.34 9.75579L106.204 4.40351L104.478 5.41467ZM109.34 10.7669L112.476 5.41467L110.751 4.40351L107.614 9.75579L109.34 10.7669ZM111.614 5.90909H113.932V3.90909H111.614V5.90909ZM113.092 4.36657L108.865 10.912L110.545 11.9971L114.772 5.45162L113.092 4.36657ZM108.865 11.9971L113.092 18.5425L114.772 17.4575L110.545 10.912L108.865 11.9971ZM113.932 17H111.614V19H113.932V17ZM112.465 17.4746L109.328 12.3951L107.626 13.4458L110.763 18.5254L112.465 17.4746ZM107.626 12.3951L104.49 17.4746L106.192 18.5254L109.328 13.4458L107.626 12.3951ZM105.341 17H103.023V19H105.341V17ZM103.867 18.5363L108.026 11.9909L106.338 10.9182L102.179 17.4637L103.867 18.5363ZM108.026 10.9182L103.867 4.37278L102.179 5.4454L106.338 11.9909L108.026 10.9182ZM103.023 5.90909H105.341V3.90909H103.023V5.90909Z" fill="black" fill-opacity="0.25" mask="url(#path-1-outside-1_92_32)"/>
</g>
<defs>
<filter id="filter0_d_92_32" x="0.15271" y="0.545441" width="117.779" height="25.7614" filterUnits="userSpaceOnUse" color-interpolation-filters="sRGB">
<feFlood flood-opacity="0" result="BackgroundImageFix"/>
<feColorMatrix in="SourceAlpha" type="matrix" values="0 0 0 0 0 0 0 0 0 0 0 0 0 0 0 0 0 0 127 0" result="hardAlpha"/>
<feOffset dy="4"/>
<feGaussianBlur stdDeviation="2"/>
<feComposite in2="hardAlpha" operator="out"/>
<feColorMatrix type="matrix" values="0 0 0 0 0 0 0 0 0 0 0 0 0 0 0 0 0 0 0.25 0"/>
<feBlend mode="normal" in2="BackgroundImageFix" result="effect1_dropShadow_92_32"/>
<feBlend mode="normal" in="SourceGraphic" in2="effect1_dropShadow_92_32" result="shape"/>
</filter>
</defs>
</svg>
